# xmcd CD database file
#
# Track frame offsets:
#	150
#	15778
#	36593
#	50050
#	70263
#	87945
#	103485
#	123335
#	143583
#	167130
#	188020
#	212070
#	234025
#	250095
#	265023
#	278510
#
# Disc length: 4051 seconds
#
# Revision: 0
# Processed by: cddbd v1.4PL0 Copyright (c) Steve Scherf et al.
# Submitted via: CDex 1.51
#
DISCID=d70fd110
DTITLE=Ben Sidran - That's Life I Guess
DYEAR=1976
DGENRE=Jazz
TTITLE0=Let's Make a Deal
TTITLE1=New York State of Mind
TTITLE2=Feel Your Groove
TTITLE3=Sunday Kind of Love
TTITLE4=Free in America
TTITLE5=Broad Daylight
TTITLE6=Song For a Sucker Like You
TTITLE7=Set Yourself Free
TTITLE8=Silver's Serenade
TTITLE9=See You on the Other Side
TTITLE10=Moose the Mooche
TTITLE11=That's Life I Guess
TTITLE12=The Cadillac Kid
TTITLE13=Kiss in the Night
TTITLE14=Face Your Fears
TTITLE15=Someday My Prince Will Come
EXTD=YEAR: 1976
EXTT0=
EXTT1=
EXTT2=
EXTT3=
EXTT4=
EXTT5=
EXTT6=
EXTT7=
EXTT8=
EXTT9=
EXTT10=
EXTT11=
EXTT12=
EXTT13=
EXTT14=
EXTT15=
PLAYORDER=
